<?xml version="1.0" encoding="iso-8859-1"?>
<!-- Uploaded to: SVG Repo, www.svgrepo.com, Generator: SVG Repo Mixer Tools -->
<svg height="800px" width="800px" version="1.1" id="Layer_1" xmlns="http://www.w3.org/2000/svg" xmlns:xlink="http://www.w3.org/1999/xlink" 
	 viewBox="0 0 511.998 511.998" xml:space="preserve">
<path style="fill:#51B3DA;" d="M373.504,485.424l-40.511-118.516c-2.749-8.039-10.451-13.576-18.988-13.576H273.25V241.524
	c0-11.083-8.985-20.067-20.067-20.067c-11.083,0-20.067,8.985-20.067,20.067v111.807H192.36c-8.418,0-16.21,5.44-18.988,13.576
	l-40.509,118.516c-8.622,25.223,29.384,38.121,37.977,12.981l15.614-45.681h133.461l15.615,45.681
	C344.073,523.409,382.108,510.59,373.504,485.424z M200.172,412.589l6.537-19.124h92.951l6.537,19.124H200.172z"/>
<path style="fill:#238CC5;" d="M373.504,485.424l-40.511-118.516c-2.749-8.039-10.451-13.576-18.988-13.576H273.25V241.524
	c0-11.083-8.983-20.067-20.066-20.067v172.009h46.475l6.537,19.124h-53.013v40.135h66.731l15.615,45.681
	C344.073,523.409,382.108,510.59,373.504,485.424z"/>
<path style="fill:#C7E9F4;" d="M144.453,297.815l-46.917-81.263c-5.327-9.228-2.515-21.011,6.407-26.837L308.169,56.356
	c9.64-6.296,22.597-3.195,28.35,6.769l60.296,104.436c5.758,9.973,1.949,22.74-8.313,27.936L170.896,305.685
	C161.394,310.496,149.783,307.044,144.453,297.815z"/>
<path style="fill:#80D0E1;" d="M396.816,167.56L336.52,63.124c-5.758-9.972-18.717-13.06-28.35-6.769l-54.987,35.907v171.757
	l135.32-68.521C398.777,190.295,402.568,177.522,396.816,167.56z"/>
<path style="fill:#C7E9F4;" d="M78.434,320.337L45.02,262.464c-5.543-9.598-2.254-21.871,7.345-27.412l59.267-34.219
	c9.591-5.537,21.871-2.252,27.412,7.345l33.415,57.874c5.537,9.591,2.253,21.872-7.345,27.412l-59.268,34.218
	C96.247,333.224,83.975,329.935,78.434,320.337z"/>
<g>
	<polygon style="fill:#80D0E1;" points="231.455,275.02 267.314,256.863 194.431,130.626 160.777,152.602 	"/>
	<path style="fill:#80D0E1;" d="M159.68,324.189L82.308,190.176c-5.541-9.598-2.254-21.871,7.345-27.412
		c9.598-5.541,21.871-2.254,27.412,7.345l77.372,134.012c5.543,9.598,2.254,21.871-7.345,27.412
		C177.493,337.076,165.221,333.786,159.68,324.189z"/>
</g>
<g>
	<path style="fill:#51B3DA;" d="M372.954,206.499L290.868,64.322c-5.537-9.591-2.253-21.872,7.345-27.412l59.268-34.218
		c9.598-5.541,21.871-2.254,27.412,7.345l82.085,142.177c5.543,9.598,2.254,21.871-7.345,27.412l-59.267,34.219
		C390.813,219.361,378.518,216.135,372.954,206.499z"/>
	<polygon style="fill:#51B3DA;" points="253.183,232.387 253.183,264.017 267.314,256.863 	"/>
</g>
</svg>